<svg width="24" height="24" xmlns="http://www.w3.org/2000/svg" viewBox="0 0 24 24" fill="#3B82F6">
  <path d="M18 2c-1.1 0-2 .9-2 2 0 .7.4 1.4 1 1.7V17h-3v-2c0-1.1-.9-2-2-2-1.1 0-2 .9-2 2v2H5V5.7c.6-.3 1-1 1-1.7 0-1.1-.9-2-2-2S2 3.9 2 5c0 .7.4 1.4 1 1.7V21h14v-2h3V5.7c.6-.3 1-1 1-1.7 0-1.1-.9-2-2-2M6 4c.6 0 1 .4 1 1s-.4 1-1 1-1-.4-1-1 .4-1 1-1m12 0c.6 0 1 .4 1 1s-.4 1-1 1-1-.4-1-1 .4-1 1-1M8 19v-2c0-.6.4-1 1-1 .6 0 1 .4 1 1v2H8m12 0h-4v-2c0-1.1-.9-2-2-2s-2 .9-2 2v2H4V7.4c.3.2.6.3 1 .3s.7-.1 1-.3V19h2v-2c0-1.1.9-2 2-2s2 .9 2 2v2h2V5h4v14Z"/>
</svg>